Coordinates
version=1
nRows=65
nColumns=12
inDegrees=yes

Units are S.I. units (second, meters, Newtons, ...)
Angles are in degrees

endheader
time	SC_y	SC_z	SC_x	AC_y	AC_z	AC_x	GH_y	GH_z	GH_yy	EL_x	PS_y
       0.0              -34.95          24.83          16.14          47.88          8.596          5.141          13.64          77.78         -123.5          135.5          61.85
   0.03479              -34.95          24.83          16.13          47.88          8.596          5.143          13.66          77.77         -123.5          135.5          61.86
   0.06958              -34.96          24.83          16.13          47.88          8.595          5.145          13.68          77.76         -123.4          135.5          61.87
    0.1044              -34.96          24.82          16.13          47.88          8.595          5.147           13.7          77.75         -123.4          135.5          61.88
    0.1392              -34.96          24.82          16.13          47.88          8.594          5.149          13.72          77.74         -123.3          135.5           61.9
     0.174              -34.96          24.81          16.13          47.88          8.593          5.151          13.74          77.73         -123.3          135.4          61.91
    0.2087              -34.96          24.81          16.13          47.88          8.593          5.153          13.77          77.72         -123.2          135.4          61.92
    0.2435              -34.97           24.8          16.12          47.88          8.592          5.156           13.8          77.71         -123.2          135.4          61.94
    0.2783              -34.97          24.79          16.12          47.88          8.591          5.159          13.83           77.7         -123.1          135.4          61.96
    0.3131              -34.97          24.79          16.12          47.88           8.59          5.162          13.86          77.68         -123.1          135.3          61.97
    0.3479              -34.97          24.78          16.12          47.88          8.589          5.165          13.89          77.67         -123.0          135.3          61.99
    0.3827              -34.98          24.77          16.12          47.88          8.588          5.168          13.93          77.65         -122.9          135.3          62.01
    0.4175              -34.98          24.77          16.11          47.88          8.587          5.172          13.97          77.64         -122.9          135.2          62.04
    0.4523              -34.98          24.76          16.11          47.88          8.586          5.176          14.01          77.62         -122.8          135.2          62.06
    0.4871              -34.99          24.75          16.11          47.88          8.585           5.18          14.05           77.6         -122.7          135.1          62.08
    0.5219              -34.99          24.74           16.1          47.88          8.583          5.185           14.1          77.58         -122.6          135.1          62.11
    0.5567               -35.0          24.73           16.1          47.88          8.582           5.19          14.16          77.55         -122.5          135.0          62.14
    0.5915               -35.0          24.71           16.1          47.88           8.58          5.195          14.22          77.53         -122.4          135.0          62.18
    0.6262              -35.01           24.7          16.09          47.88          8.579          5.201          14.28           77.5         -122.3          134.9          62.21
     0.661              -35.01          24.69          16.09          47.88          8.577          5.208          14.35          77.47         -122.1          134.9          62.25
    0.6958              -35.02          24.67          16.08          47.88          8.575          5.215          14.43          77.44         -122.0          134.8          62.29
    0.7306              -35.02          24.65          16.08          47.88          8.572          5.223          14.51           77.4         -121.8          134.7          62.34
    0.7654              -35.03          24.63          16.07          47.88           8.57          5.232           14.6          77.36         -121.7          134.6           62.4
    0.8002              -35.04          24.61          16.06          47.88          8.567          5.241          14.71          77.32         -121.5          134.5          62.45
     0.835              -35.05          24.59          16.06          47.88          8.564          5.252          14.82          77.27         -121.3          134.4          62.52
    0.8698              -35.06          24.56          16.05          47.88           8.56          5.264          14.95          77.21         -121.0          134.3          62.59
    0.9046              -35.07          24.53          16.04          47.88          8.556          5.277           15.1          77.15         -120.7          134.2          62.67
    0.9394              -35.09           24.5          16.03          47.89          8.552          5.293          15.26          77.08         -120.4          134.0          62.76
    0.9742               -35.1          24.46          16.01          47.89          8.547           5.31          15.44           77.0         -120.1          133.8          62.87
     1.009              -35.12          24.42           16.0          47.89          8.541          5.329          15.65          76.91         -119.7          133.6          62.98
     1.044              -35.14          24.37          15.99          47.89          8.535          5.351          15.88          76.81         -119.3          133.4          63.12
     1.079              -35.16          24.31          15.97          47.89          8.527          5.377          16.16          76.69         -118.7          133.2          63.27
     1.113              -35.18          24.25          15.95          47.89          8.519          5.406          16.47          76.55         -118.2          132.9          63.45
     1.148              -35.21          24.17          15.92          47.89          8.509          5.441          16.84           76.4         -117.5          132.5          63.65
     1.183              -35.25          24.08          15.89          47.89          8.497          5.481          17.26          76.21         -116.7          132.1          63.89
     1.218              -35.29          23.98          15.86          47.89          8.483          5.528          17.77          75.99         -115.7          131.6          64.18
     1.252              -35.34          23.85          15.82           47.9          8.467          5.584          18.36          75.74         -114.6          131.1          64.51
     1.287               -35.4          23.71          15.77           47.9          8.447          5.651          19.08          75.43         -113.2          130.4          64.92
     1.322              -35.47          23.53          15.71           47.9          8.424          5.732          19.95          75.05         -111.6          129.6          65.41
     1.357              -35.56          23.31          15.64           47.9          8.395          5.831          21.01          74.59         -109.6          128.6           66.0
     1.392              -35.66          23.03          15.56          47.91          8.359          5.954          22.32          74.03         -107.2          127.3          66.74
     1.426               -35.8           22.7          15.45          47.91          8.314          6.107          23.95          73.32         -104.1          125.8          67.66
     1.461              -35.96          22.27          15.31          47.92          8.258          6.299           26.0          72.44         -100.2          123.9          68.82
     1.496              -36.18          21.73          15.13          47.93          8.187          6.544          28.61          71.31          -95.3          121.4          70.29
     1.531              -36.45          21.04          14.91          47.94          8.096          6.857          31.96          69.86         -89.01          118.2          72.17
     1.566               -36.8          20.15          14.62          47.95          7.978          7.259          36.25          68.01         -80.94          114.2          74.59
       1.6              -37.25          19.01          14.26          47.97          7.829          7.772          41.73          65.64         -70.63          109.0          77.68
     1.635              -37.81          17.58           13.8          47.99           7.64          8.417          48.62          62.66         -57.66          102.5          81.56
      1.67               -38.5          15.84          13.24          48.02          7.411          9.204          57.01          59.04         -41.86          94.57          86.29
     1.705               -39.3          13.82          12.59          48.05          7.145          10.12          66.74          54.83         -23.54          85.38          91.77
      1.74              -40.16          11.64          11.88          48.08          6.857           11.1          77.28          50.28         -3.708          75.42          97.71
     1.774              -41.02          9.453          11.18          48.11          6.569          12.09          87.82          45.72          16.12          65.47          103.6
     1.809              -41.81          7.435          10.53          48.15          6.303           13.0          97.55          41.52          34.44          56.27          109.1
     1.844               -42.5          5.694          9.967          48.17          6.074          13.79          105.9          37.89          50.24          48.34          113.9
     1.879              -43.06          4.265          9.506          48.19          5.885          14.43          112.8          34.91          63.21          41.84          117.7
     1.914              -43.51          3.129           9.14          48.21          5.736          14.95          118.3          32.55          73.52          36.66          120.8
     1.948              -43.86           2.24          8.853          48.22          5.618          15.35          122.6          30.69           81.6          32.61          123.2
     1.983              -44.14          1.547           8.63          48.24          5.527          15.66          126.0          29.25          87.89          29.45          125.1
     2.018              -44.35          1.005          8.455          48.24          5.456          15.91          128.6          28.12           92.8          26.98          126.6
     2.053              -44.52         0.5791          8.318          48.25            5.4           16.1          130.6          27.23          96.67          25.04          127.8
     2.087              -44.65         0.2409          8.209          48.26          5.355          16.25          132.2          26.53          99.74           23.5          128.7
     2.122              -44.76       -0.03022          8.122          48.26          5.319          16.37          133.6          25.96          102.2          22.27          129.4
     2.157              -44.85        -0.2499          8.051          48.26           5.29          16.47          134.6           25.5          104.2          21.27          130.0
     2.192              -44.92        -0.4298          7.993          48.27          5.267          16.55          135.5          25.13          105.8          20.45          130.5
     2.227              -44.97        -0.5785          7.945          48.27          5.247          16.62          136.2          24.82          107.2          19.77          130.9
